<?xml version="1.0" encoding="UTF-8" standalone="no"?>
<!-- Created with Inkscape (http://www.inkscape.org/) -->

<svg
   xmlns:dc="http://purl.org/dc/elements/1.1/"
   xmlns:cc="http://creativecommons.org/ns#"
   xmlns:rdf="http://www.w3.org/1999/02/22-rdf-syntax-ns#"
   xmlns:svg="http://www.w3.org/2000/svg"
   xmlns="http://www.w3.org/2000/svg"
   xmlns:sodipodi="http://sodipodi.sourceforge.net/DTD/sodipodi-0.dtd"
   xmlns:inkscape="http://www.inkscape.org/namespaces/inkscape"
   width="1243.8667"
   height="641.79962"
   id="svg5349"
   version="1.1"
   inkscape:version="0.48.4 r9939"
   sodipodi:docname="logo-color.svg">
  <defs
     id="defs5351" />
  <sodipodi:namedview
     id="base"
     pagecolor="#ffffff"
     bordercolor="#666666"
     borderopacity="1.0"
     inkscape:pageopacity="0.0"
     inkscape:pageshadow="2"
     inkscape:zoom="0.98994949"
     inkscape:cx="596.55518"
     inkscape:cy="364.95856"
     inkscape:document-units="px"
     inkscape:current-layer="layer1"
     showgrid="false"
     fit-margin-top="0"
     fit-margin-left="0"
     fit-margin-right="0"
     fit-margin-bottom="0"
     inkscape:window-width="1920"
     inkscape:window-height="1051"
     inkscape:window-x="-4"
     inkscape:window-y="-4"
     inkscape:window-maximized="1" />
  <metadata
     id="metadata5354">
    <rdf:RDF>
      <cc:Work
         rdf:about="">
        <dc:format>image/svg+xml</dc:format>
        <dc:type
           rdf:resource="http://purl.org/dc/dcmitype/StillImage" />
        <dc:title />
      </cc:Work>
    </rdf:RDF>
  </metadata>
  <g
     inkscape:label="Layer 1"
     inkscape:groupmode="layer"
     id="layer1"
     transform="translate(210.50477,37.109042)">
    <g
       transform="scale(1.0500136,0.95236861)"
       style="font-size:252.86772156px;font-style:normal;font-variant:normal;font-weight:normal;font-stretch:normal;line-height:100%;letter-spacing:-15.91940212px;word-spacing:0px;fill:#fa4616;fill-opacity:1;stroke:none;font-family:Droid Sans;-inkscape-font-specification:Droid Sans"
       id="text5125">
      <path
         d="m -118.37021,289.91278 -82.10793,0 0,-21.73082 21.97776,-10.12459 0,-116.80315 -21.97776,-10.12459 0,-21.73082 82.10793,0 0,21.73082 -21.97776,10.12459 0,116.80315 21.97776,10.12459 0,21.73082"
         style="font-weight:bold;line-height:0%;letter-spacing:-22.29608154px;fill:#fa4616;font-family:Droid Sans;-inkscape-font-specification:Droid Sans Bold"
         id="path3008" />
      <path
         d="m -40.902078,149.2798 c 0.987672,1.5e-4 2.057749,0.0413 3.210235,0.12348 1.23461,1.4e-4 2.387001,0.0824 3.457176,0.24694 1.152293,0.0825 2.181213,0.20592 3.086764,0.37041 0.987662,0.0824 1.728485,0.20592 2.22247,0.37041 l 0,35.31258 c -0.658612,-0.16452 -1.564062,-0.32915 -2.716352,-0.49388 -1.152492,-0.16452 -2.387196,-0.28799 -3.704117,-0.37041 -1.234802,-0.16452 -2.469506,-0.24684 -3.704117,-0.24694 -1.234798,-0.0822 -2.263718,-0.12337 -3.086764,-0.12347 -4.856595,1e-4 -9.342688,0.61745 -13.458292,1.85205 -4.033445,1.23481 -7.531774,3.2515 -10.494998,6.05006 -2.881044,2.71645 -5.144669,6.33825 -6.790881,10.86541 -1.564019,4.44503 -2.345999,9.91888 -2.345941,16.42159 l 0,70.25475 -37.658525,0 0,-138.04009 28.521703,0 5.556175,20.74305 1.852059,0 c 1.975471,-3.53937 4.115626,-6.7496 6.420469,-9.6307 2.30472,-2.88085 4.856442,-5.3091 7.655176,-7.28477 2.880907,-2.0577 6.091138,-3.62166 9.630704,-4.69188 3.62172,-1.15225 7.737402,-1.72844 12.347056,-1.72859"
         style="font-weight:bold;line-height:0%;letter-spacing:-22.29608154px;fill:#fa4616;font-family:Droid Sans;-inkscape-font-specification:Droid Sans Bold"
         id="path3010" />
      <path
         d="m 33.020652,176.07292 c -6.667479,1.1e-4 -12.223649,2.34605 -16.668526,7.03782 -4.362682,4.69198 -6.8732474,12.05905 -7.531705,22.10123 l 48.030051,0 c -0.08241,-4.19791 -0.617452,-8.06665 -1.605118,-11.60623 -0.987861,-3.53939 -2.469506,-6.585 -4.44494,-9.13682 -1.975621,-2.63393 -4.445029,-4.69178 -7.408234,-6.17353 -2.963377,-1.48154 -6.420549,-2.22236 -10.371528,-2.22247 m 4.815352,116.30927 c -9.877716,0 -18.973372,-1.44049 -27.286995,-4.32147 -8.3137297,-2.88097 -15.4750154,-7.20244 -21.483879,-12.96441 -6.008926,-5.84425 -10.700803,-13.17016 -14.075644,-21.97776 -3.292563,-8.88983 -4.938836,-19.30251 -4.938823,-31.23805 -1.3e-5,-12.10004 1.522789,-22.67734 4.568411,-31.73194 3.045587,-9.0544 7.284739,-16.58609 12.717468,-22.59511 5.5149836,-6.09109 12.1000739,-10.65949 19.755291,-13.70523 7.737432,-3.04547 16.298049,-4.56827 25.681878,-4.56842 9.136738,1.5e-4 17.3681,1.39948 24.694113,4.198 7.408127,2.71649 13.663963,6.74986 18.767527,12.10012 5.18564,5.35051 9.136694,11.9356 11.853174,19.75529 2.798533,7.73759 4.197865,16.62746 4.197999,26.66964 l 0,18.27365 -84.2069264,0 c 0.1645766,5.26813 0.9877129,10.04232 2.4694114,14.32258 1.563906,4.19804 3.70406,7.77869 6.420469,10.74194 2.798604,2.88101 6.132306,5.10348 10.001116,6.66741 3.950985,1.56399 8.437078,2.34597 13.458292,2.34594 4.197912,3e-5 8.148966,-0.20576 11.853175,-0.61735 3.786332,-0.49386 7.449288,-1.19352 10.98888,-2.099 3.53938,-0.90542 7.03771,-2.01665 10.494998,-3.3337 3.457056,-1.3993 6.996542,-3.00442 10.618469,-4.81536 l 0,29.13906 c -3.292672,1.72859 -6.626374,3.21024 -10.001116,4.44494 -3.292662,1.15239 -6.790991,2.14015 -10.494998,2.96329 -3.70422,0.82314 -7.696431,1.39933 -11.976645,1.72859 -4.280403,0.41157 -8.97228,0.61735 -14.075645,0.61735"
         style="font-weight:bold;line-height:0%;letter-spacing:-22.29608154px;fill:#fa4616;font-family:Droid Sans;-inkscape-font-specification:Droid Sans Bold"
         id="path3012" />
      <path
         d="m 221.85923,289.91278 -37.65852,0 0,-80.62628 c -10e-5,-9.95987 -1.5229,-17.40925 -4.56841,-22.34817 -2.96339,-5.02103 -7.73758,-7.5316 -14.32258,-7.53171 -4.93891,1.1e-4 -9.05459,0.98788 -12.34706,2.9633 -3.29262,1.97563 -5.92665,4.89777 -7.90212,8.76641 -1.89327,3.86884 -3.25145,8.64303 -4.07453,14.32258 -0.82319,5.67973 -1.23476,12.1825 -1.2347,19.50835 l 0,64.94552 -37.65853,0 0,-138.04009 28.76865,0 5.06229,17.65629 2.099,0 c 1.97547,-3.53937 4.36257,-6.58497 7.16129,-9.13682 2.88092,-2.5516 6.00883,-4.65059 9.38377,-6.297 3.37478,-1.64614 6.95543,-2.83969 10.74194,-3.58065 3.78634,-0.823 7.65508,-1.23456 11.60623,-1.23471 6.74962,1.5e-4 12.88199,0.98791 18.39711,2.9633 5.5149,1.89335 10.24794,4.8978 14.19912,9.01335 3.95093,4.11581 6.99653,9.38388 9.13682,15.80423 2.14002,6.33826 3.2101,13.95228 3.21023,22.84206 l 0,90.01004"
         style="font-weight:bold;line-height:0%;letter-spacing:-22.29608154px;fill:#fa4616;font-family:Droid Sans;-inkscape-font-specification:Droid Sans Bold"
         id="path3014" />
      <path
         d="m 294.14159,176.07292 c -6.66748,1.1e-4 -12.22365,2.34605 -16.66852,7.03782 -4.36268,4.69198 -6.87325,12.05905 -7.53171,22.10123 l 48.03005,0 c -0.0824,-4.19791 -0.61745,-8.06665 -1.60511,-11.60623 -0.98787,-3.53939 -2.46951,-6.585 -4.44495,-9.13682 -1.97562,-2.63393 -4.44502,-4.69178 -7.40823,-6.17353 -2.96338,-1.48154 -6.42055,-2.22236 -10.37153,-2.22247 m 4.81536,116.30927 c -9.87772,0 -18.97338,-1.44049 -27.287,-4.32147 -8.31373,-2.88097 -15.47502,-7.20244 -21.48388,-12.96441 -6.00893,-5.84425 -10.7008,-13.17016 -14.07564,-21.97776 -3.29257,-8.88983 -4.93884,-19.30251 -4.93883,-31.23805 -1e-5,-12.10004 1.52279,-22.67734 4.56842,-31.73194 3.04558,-9.0544 7.28473,-16.58609 12.71746,-22.59511 5.51499,-6.09109 12.10008,-10.65949 19.75529,-13.70523 7.73744,-3.04547 16.29805,-4.56827 25.68188,-4.56842 9.13674,1.5e-4 17.3681,1.39948 24.69412,4.198 7.40812,2.71649 13.66396,6.74986 18.76752,12.10012 5.18564,5.35051 9.1367,11.9356 11.85318,19.75529 2.79853,7.73759 4.19786,16.62746 4.198,26.66964 l 0,18.27365 -84.20693,0 c 0.16458,5.26813 0.98771,10.04232 2.46941,14.32258 1.56391,4.19804 3.70406,7.77869 6.42047,10.74194 2.7986,2.88101 6.13231,5.10348 10.00112,6.66741 3.95098,1.56399 8.43707,2.34597 13.45829,2.34594 4.19791,3e-5 8.14896,-0.20576 11.85317,-0.61735 3.78633,-0.49386 7.44929,-1.19352 10.98888,-2.099 3.53938,-0.90542 7.03771,-2.01665 10.495,-3.3337 3.45706,-1.3993 6.99654,-3.00442 10.61847,-4.81536 l 0,29.13906 c -3.29267,1.72859 -6.62637,3.21024 -10.00112,4.44494 -3.29266,1.15239 -6.79099,2.14015 -10.49499,2.96329 -3.70422,0.82314 -7.69644,1.39933 -11.97665,1.72859 -4.2804,0.41157 -8.97228,0.61735 -14.07564,0.61735"
         style="font-weight:bold;line-height:0%;letter-spacing:-22.29608154px;fill:#fa4616;font-family:Droid Sans;-inkscape-font-specification:Droid Sans Bold"
         id="path3016" />
      <path
         d="m 457.03371,248.92055 c -1.1e-4,7.24364 -1.31713,13.58179 -3.95106,19.01447 -2.63414,5.43272 -6.37941,9.95997 -11.23582,13.58176 -4.8566,3.62181 -10.74202,6.33816 -17.65629,8.14906 -6.91442,1.8109 -14.65191,2.71635 -23.21247,2.71635 -4.5273,0 -8.7253,-0.16463 -12.594,-0.49388 -3.86878,-0.24694 -7.53174,-0.69967 -10.98888,-1.35818 -3.4572,-0.65851 -6.7909,-1.48164 -10.00111,-2.46941 -3.21026,-0.98776 -6.46164,-2.22246 -9.75418,-3.70411 l 0,-31.11459 c 3.45716,1.72863 7.07896,3.29258 10.86541,4.69188 3.86872,1.39937 7.6963,2.63407 11.48277,3.70412 3.78639,0.98779 7.44934,1.76977 10.98888,2.34594 3.62175,0.57622 6.95545,0.86432 10.00111,0.8643 3.37481,2e-5 6.25578,-0.28808 8.64294,-0.8643 2.38703,-0.65848 4.3214,-1.52277 5.80312,-2.59288 1.56389,-1.15236 2.67512,-2.46938 3.3337,-3.95106 0.74075,-1.56392 1.11116,-3.2102 1.11124,-4.93882 -8e-5,-1.72855 -0.28817,-3.25135 -0.86429,-4.56841 -0.49396,-1.39929 -1.68751,-2.83978 -3.58065,-4.32147 -1.89328,-1.56391 -4.69195,-3.2925 -8.396,-5.18577 -3.62186,-1.97547 -8.51952,-4.36257 -14.693,-7.16129 -6.00894,-2.71629 -11.23585,-5.39148 -15.68076,-8.02559 -4.36265,-2.71628 -7.98445,-5.72073 -10.86541,-9.01335 -2.79868,-3.29247 -4.89768,-7.03774 -6.297,-11.23582 -1.39934,-4.28022 -2.09901,-9.34251 -2.099,-15.18688 -1e-5,-6.42036 1.23469,-12.01769 3.70412,-16.792 2.46939,-4.85638 5.96772,-8.88975 10.495,-12.10011 4.52722,-3.2101 9.95992,-5.5972 16.29811,-7.16129 6.42042,-1.64614 13.54055,-2.46927 21.36041,-2.46942 8.2313,1.5e-4 16.05109,0.94675 23.45941,2.83983 7.40814,1.89335 15.02215,4.73317 22.84205,8.51947 l -11.35929,26.66964 c -6.25593,-2.96319 -12.22367,-5.39144 -17.90323,-7.28476 -5.67972,-1.89311 -11.35936,-2.83971 -17.03894,-2.83983 -5.10351,1.2e-4 -8.80762,0.90557 -11.11235,2.71636 -2.22252,1.81101 -3.33376,4.28041 -3.33371,7.40823 -5e-5,1.64637 0.28805,3.12802 0.8643,4.44494 0.57614,1.2348 1.72853,2.55182 3.45717,3.95106 1.72854,1.31711 4.15679,2.79876 7.28477,4.44494 3.12785,1.56405 7.20238,3.49842 12.22358,5.80312 5.8442,2.5518 11.11227,5.10352 15.80424,7.65517 4.69178,2.46949 8.72515,5.30931 12.10011,8.51947 3.37476,3.2103 5.96764,6.95557 7.77865,11.23582 1.81079,4.28037 2.71624,9.46612 2.71635,15.55729"
         style="font-weight:bold;line-height:0%;letter-spacing:-22.29608154px;fill:#fa4616;font-family:Droid Sans;-inkscape-font-specification:Droid Sans Bold"
         id="path3018" />
    </g>
    <rect
       style="fill:#fa4616;fill-opacity:1;stroke:none"
       id="rect5129"
       width="36.963711"
       height="36.963711"
       x="256.96469"
       y="257.73944"
       transform="matrix(0.58429923,0.8115383,-0.58429923,0.8115383,0,0)"
       inkscape:export-filename="/home/zerd/Pictures/irene/logo-color.png"
       inkscape:export-xdpi="180.89"
       inkscape:export-ydpi="180.89" />
    <path
       sodipodi:nodetypes="ccccccccccccccccccccccccccccccccccccccccccccccccccccccccccccccccccccccccccccccccccccccccccccccccccccccccccccccccccccccccccccccccccccccccccccccccccccccccccccccccccccccccccccccccccccccccccccccccccccccccccccccccccccccccccccccccccccccccccccccccccccccccccccccccccccccccccccccccccccccccccccccccccccccccccccccccccccccccccccccccccccccccccccccccccccccccccccccccccccccccccccccccccccccccccccccccccccccccccccccccccccccccccccccccccccccccccccccccccccccccccccccccccccccccccccccccccccccccccccccccccccccccccccccccccccccccccccccccccccccccccccccccccccccccccccccccccccccccccccccccccccccccccccccccccccccccccccccccccccccccccccccccccccccccccccccccccccccccccccccccccccccccccccccccccccccccccccccccccccccccccccccccccccccccccccccccccccccccccccccccccccccccccccccccccccccccccccccccccccccccccccccccccccccccccccccccccccccccccccccccccccccccccccccccccccccccccccccccccccccccccccccc"
       inkscape:connector-curvature="0"
       style="font-size:medium;font-style:normal;font-variant:normal;font-weight:normal;font-stretch:normal;text-indent:0;text-align:start;text-decoration:none;line-height:normal;letter-spacing:normal;word-spacing:normal;text-transform:none;direction:ltr;block-progression:tb;writing-mode:lr-tb;text-anchor:start;baseline-shift:baseline;color:#000000;fill:#003087;fill-opacity:1;stroke:none;stroke-width:5;marker:none;visibility:visible;display:inline;overflow:visible;enable-background:accumulate;font-family:Sans;-inkscape-font-specification:Sans"
       d="m 656.74751,-37.100642 -0.039,10.9853 8.3093,0.2425 0.078,0 0.078,0 0.1167,0.04 0.078,0 8.3508,0.4462 0.1167,0 0.8912,-0.078 0.2438,0.1174 8.0667,0.6487 0.1168,0.04 0.1622,0 0.2023,0.04 8.4727,0.891 0.078,0 0.078,0 0.078,0 0.078,0 8.714,1.1351 0.039,0.04 0.039,0 0.2022,0.04 0.039,0 8.6349,1.3386 0.1622,0.04 0.4047,0.04 0.1167,0.078 8.2691,1.4994 0.039,0 0.2023,0.04 0.039,0 0.078,0.04 8.6335,1.7836 0,0.04 0.078,0 0.1168,0 0.1167,0.04 8.6349,2.0261 0.2022,0.04 0.1623,0.078 0.2022,0.078 8.0265,2.1079 0.2023,0.04 0.078,0.04 0.078,0 0.1622,0.04 4.9446,1.4592 2.7979,-10.4574 -4.824,-1.4591 -0.078,0 -0.078,-0.04 -0.1622,-0.04 -0.1168,0 -0.039,-0.04 -0.039,0 -8.9993,-2.392 -0.039,0 -0.1168,-0.04 -0.284,-0.078 -8.5519,-2.0261 -0.1167,-0.04 -0.078,0 -0.1168,-0.04 -8.8774,-1.8651 -0.078,0 -0.1168,-0.04 -0.078,-0.04 -0.039,0 -0.1167,0 0,-0.04 -8.7957,-1.5811 -0.1167,-0.04 -0.039,0 -0.039,0 -0.039,0 -9.0798,-1.4594 -0.039,0 -0.039,0 -0.078,0 -0.2037,-0.04 -8.9177,-1.1752 -0.039,0 -0.078,0 -0.1167,0 -9.0396,-1.0131 -0.039,0 -0.039,0 -0.078,0 -8.998,-0.6887 -0.1168,-0.04 -0.039,0 -0.2022,0 -0.2023,-0.04 -8.7153,-0.4462 -0.1622,0 -0.1167,-0.04 -0.1168,0 -8.4714,-0.244 -0.039,0 z m -41.3856,1.7018 -4.9446,0.528 -0.1635,0 -0.2426,0.04 -0.039,0 -8.391,1.0129 -0.6486,0.1614 -0.3242,-0.04 -8.1887,1.2154 -0.2426,0.04 -0.4059,0.1174 -0.2426,-0.04 -8.4312,1.5411 -0.5267,0.078 -0.039,0 -8.2704,1.6616 -0.2022,0.04 -0.5669,0.1614 -0.1622,-0.04 -7.7826,1.7834 -0.039,0.04 -0.3645,0.077 -0.039,0 -0.039,0 -0.1168,0.04 -8.2288,2.0676 -0.078,0.04 -0.4865,0.078 -0.078,0.04 -0.039,0 -0.039,0.04 -8.3105,2.3103 -0.039,0 -0.3243,0.1174 -0.039,0 -0.078,0.04 -8.6751,2.676 -0.078,0 -0.039,0 -0.1167,0.04 -0.039,0 -8.1472,2.7148 -0.1167,0.078 -0.3645,0.1173 -0.1168,0.04 -0.1167,0.04 -8.3106,3.0002 -0.078,0 -0.039,0.04 -0.1167,0.04 -0.078,0.04 -0.039,0 -0.9729,0.4047 3.6073,10.2147003 0.8107,-0.3243 0.078,-0.04 0.078,-0.04 0.078,-0.04 0.078,-0.04 8.0265,-2.8367 0.1622,-0.078 0.039,0 0.1168,-0.077 0.1167,-0.04 7.985,-2.6346 0.2023,-0.078 0.078,0 0.078,-0.04 0.1622,-0.078 8.3093,-2.5540003 0.039,0 0.078,-0.04 0.2023,-0.04 8.3508,-2.3101 0.039,0 0.039,-0.04 8.5933,-2.1896 0.039,0 0.1167,-0.04 0.078,0 0,-0.04 8.4715,-1.9054 0.2022,-0.078 0.2023,0 0.2037,-0.04 8.1874,-1.6616 0.1622,-0.04 0.1622,0 0.2037,-0.04 8.3495,-1.4594 0.078,0 0.1168,0 0.078,0 0.1167,-0.04 8.2678,-1.2154 0.2037,-0.04 0.2426,-0.04 8.391,-1.0545 0.2425,-0.04 0.039,0 0.2426,-0.04 4.8239,-0.4462 -0.9728,-10.8633 z m 177.78461,27.2394003 -3.72791,10.094 0.40471,0.1614 0.1167,0.04 0.078,0.04 0.039,0.04 0.1167,0.04 8.1887,3.6075 0.1622,0.078 0.1622,0.04 0.1168,0.078 8.5116,4.0533997 0.039,0 8.3106,4.1741 0.1168,0.078 0.1167,0.078 0.039,0 0.1622,0.078 8.0265,4.2971 0.1168,0.04 0.078,0.04 0.078,0.078 0.078,0.04 8.0667,4.6204 0.039,0.04 0.039,0.04 0.1168,0.078 0.039,0 8.0265,4.8643 0.039,0.04 0.078,0.04 0.078,0.04 0.078,0.04 7.9046,5.0678 0.039,0.04 0.1167,0.078 0.078,0.04 0.039,0.04 7.7009,5.1883 0.078,0.078 0.078,0.04 0.078,0.078 0.078,0.04 7.4182,5.3908 0.1622,0.078 0.1168,0.078 0.1167,0.078 7.2145,5.5128 0.1168,0.077 6.2015,-8.5932 -0.1623,-0.078 -0.2425,-0.2842 -7.256,-5.4725 -0.039,-0.04 -0.1168,-0.078 -0.039,-0.04 -0.039,0 -0.1167,-0.078 -7.7023,-5.5528 -0.078,-0.078 -0.078,-0.04 0,-0.04 -0.078,-0.04 -0.039,0 -0.039,-0.04 -8.0654,-5.4725 -0.039,-0.04 -0.039,0 -0.039,-0.04 -0.039,-0.04 -8.1874,-5.2288 -0.078,-0.078 -0.078,-0.04 -0.078,-0.04 -0.039,0 -0.078,-0.077 -8.3508,-5.0261 -0.039,-0.04 -0.039,-0.04 -0.039,0 -0.078,-0.04 -8.4312,-4.8240997 -0.078,-0.04 0,-0.04 -0.039,0 -0.039,-0.04 -0.039,-0.04 -0.078,-0.04 -0.039,0 -8.3093,-4.4594 -0.1167,-0.04 -0.078,-0.077 -0.078,-0.04 -0.039,-0.04 -8.1472,-4.09360005 -0.1635,-0.04 -0.1607,-0.1173 -0.1167,-0.04 -0.1168,-0.078 -0.078,-0.04 -8.2288,-3.85119995 -0.2841,-0.1173 -0.078,-0.078 -0.078,-0.04 -8.6751,-3.7694 -0.2425,-0.1174 -0.078,-0.04 -0.1168,-0.078 -0.078,-0.04 -0.1167,0 z m -311.63091,12.1603 -2.4723,1.2569 -0.078,0.04 -0.4462,0.2842 -0.3243,0.078 -7.4584,4.0534 -0.078,0.078 -0.078,0.04 -0.039,0.04 -0.1167,0.077 -7.9851,4.5398997 -0.039,0 -0.3243,0.2425 -0.1167,0.04 -7.5401,4.5814 -0.078,0.04 -0.039,0.04 -0.2828,0.1614 -7.4584,4.7826 -0.078,0.04 -0.078,0.04 -7.5401,5.1481 -0.1167,0.078 -0.039,0 -0.078,0.078 -7.4584,5.269 -0.078,0.078 -0.078,0.04 -0.039,0.04 0,0.04 -0.078,0.04 -7.4182,5.5528 -0.078,0.078 -0.039,0.04 -0.039,0 -0.039,0.04 -7.2158,5.675 -0.039,0.04 -0.078,0.078 -0.039,0.04 -0.078,0.04 -6.7696,5.6748 -0.039,0.04 -0.406,0.3658 -0.039,0 -6.6879,5.7955 -0.1622,0.3242 -0.4462,0.2842 -1.5397,1.4189 6.7696,8.0253 1.2556,-1.1751 1.7836,-1.6616 0.1167,0.077 5.1482,-4.5399 0.1622,-0.1173 0.039,-0.04 0.1168,-0.078 6.7683,-5.675 1.7433,-1.4189 0.078,0.04 5.5127,-4.3778 0.078,-0.078 0.078,-0.04 0.039,-0.04 0.1168,-0.078 7.0122,-5.2688 0.078,-0.077 0.078,-0.04 0.039,-0.04 7.256,-5.1885 0.039,-0.04 0.039,-0.04 0.1607,-0.078 7.3378,-4.9861 0.1167,-0.078 0.1168,-0.04 0.039,-0.04 0.1607,-0.078 7.2158,-4.6619 0.039,0 0.1168,-0.078 0.078,-0.04 0.039,-0.04 7.4169,-4.4983 0.1634,-0.078 0.1168,-0.077 0.039,-0.078 7.5803,-4.2569 0.1622,-0.1174 0.078,-0.078 0.1167,-0.078 7.7412,-4.1741 0.1167,-0.04 0.1168,-0.078 0.2022,-0.078 2.6345,-1.3387 -4.4997,-9.7685997 z m 429.01941,65.7478997 -6.85,7.9851 2.1493,2.1078 0.039,-0.1174 2.7563,2.8368 5.9991,6.243 0.1168,0.04 0.406,0.4462 0.039,0.04 0.039,0.078 6.2819,6.8501 0.039,0 0.039,0.04 5.9589,6.769602 0.078,0.078 0.039,0.078 0.078,0.04 0.039,0.078 5.8772,6.9719 0.039,0.078 0.078,0.078 0.039,0.078 0.078,0.1174 5.5932,7.0122 0.039,0.04 0.039,0.04 0.078,0.1614 0,0.04 5.4725,7.1744 0.078,0.1174 0.078,0.078 5.3104,7.3779 0.078,0.078 0.039,0.077 0.039,0.078 0.039,0.077 4.9861,7.2962 0.078,0.078 0.039,0.1174 0.078,0.078 0.039,0.078 4.9458,7.6206 0.1168,0.1613 0,0.04 0.039,0 3.6474,5.9589 8.7555,-5.5945 -3.9717,-6.4439 -0.039,-0.04 0,-0.04 -0.039,-0.04 0,-0.04 -0.078,-0.078 -4.9459,-7.6206 -0.078,-0.1173 -0.1167,-0.1174 0,-0.04 -0.039,-0.04 -0.078,-0.078 -5.3506,-7.8241 0,-0.04 -0.039,-0.04 0,-0.04 -0.039,-0.04 -0.039,-0.078 -5.3519,-7.4184 -0.078,-0.1173 -0.039,-0.04 -0.039,-0.04 -0.039,-0.04 -0.039,-0.04 0,-0.04 -5.6347,-7.4169 -0.039,-0.078 0,-0.04 -0.039,-0.04 -0.039,-0.04 0,-0.04 -0.078,-0.078 -0.039,-0.04 0,-0.04 -5.715,-7.1342 -0.078,-0.1174 -0.1168,-0.1173 -0.039,-0.04 -0.1167,-0.1614 -0.039,-0.04 -0.039,-0.078 -5.6749,-6.729202 -0.2037,-0.2427 -0.078,-0.078 -0.039,-0.078 -6.2832,-7.0939 -0.039,-0.078 -0.039,-0.04 -0.078,-0.077 -6.4051,-6.8902 -0.078,-0.1614 -0.078,-0.077 0,-0.04 -6.4856,-6.6074 -0.078,-0.078 -0.078,-0.078 -0.039,-0.04 -0.1167,-0.1174 -4.6618,-4.5801 -0.039,0 z m -534.00371,10.9853 -2.9185,3.6475 c -6.1159,7.5816 -7.6906,10.1486 -7.7425,10.2551 0.8626,7.145702 1.9224,12.483202 3.0405,15.930902 0.8755,2.702 1.694,3.7539 1.9858,4.1742 0.2413,-0.2205 0.4917,-0.4177 0.9327,-1.0935 1.2154,-1.8678 2.7213,-5.3882 4.0937,-10.0941 l 0.078,-0.3242 0.2024,-0.3243 c 2.7447,-4.943302 7.1302,-8.347002 10.2952,-11.470502 -1.0883,-1.1386 -2.4308,-2.598 -3.9316,-4.1754 -2.1739,-2.2853 -3.6604,-9.2354 -5.5801,-11.3418 z m 617.14071,105.754802 -8.998,4.9044 2.8783,6.2021 0.039,0.08 0.039,0.1216 0,0.04 0.039,0 3.6072,8.3095 0.039,0.04 0.039,0.08 0.039,0.1614 0,0.04 0.039,0 3.3634,8.2692 0.1168,0.2836 0.078,0.2838 3.1208,8.1881 0.078,0.2033 0,0.04 0,0.04 3.00018,8.4311 0.039,0.082 0.039,0.1216 0.039,0.08 0.039,0.08 2.7564,8.3907 0.039,0.1613 0,0.04 0.039,0.1215 0,0.1216 2.6759,8.6746 0.039,0.1215 0,0.1216 0.039,0.1614 2.3517,8.4715 0.039,0.082 0.039,0.08 0.039,0.2033 2.2297,8.7555 0,0.08 0.039,0.04 0,0.1215 0.039,0.08 0,0.04 2.0261,8.7555 0.039,0.1614 0,0.1215 0,0.04 0.039,0.2431 1.742,8.269 9.932,-1.986 0,-0.04 -1.8652,-9.0393 0,-0.04 0,-0.082 -0.039,-0.08 0,-0.04 -2.1078,-9.1609 0,-0.04 -0.039,-0.1216 -2.3115,-9.1202 -0.039,-0.082 0,-0.04 0,-0.08 -0.039,-0.04 0,-0.1216 -2.3919,-8.4719 -0.2827,-0.4864 0,-0.4863 -2.5541,-8.3906 -0.078,-0.2433 -0.039,-0.1216 0,-0.04 -0.039,-0.1216 -2.7965,-8.4717 -0.3243,-0.5674 0,-0.4864 -2.8783,-7.9448 -0.1622,-0.3243 -0.078,-0.5271 0,-0.04 -0.039,-0.1216 -3.2428,-8.3499 -0.2022,-0.5676 0,-0.04 -3.2843,-8.107 -0.039,-0.04 -0.039,-0.1215 -0.078,-0.1216 -0.039,-0.1215 -3.52558,-8.1471 -0.039,-0.078 -0.1622,-0.3242 -0.1168,-0.1614 -0.078,-0.2437 -2.8782,-6.1615 z m 37.98198,140.2093 -10.0941,0.9729 0.4462,4.9859 0,0.08 0.039,0.1216 0,0.08 0,0.1216 0.5681,8.9177 0.039,0.2033 0,0.1216 0,0.1215 0.4047,9.1202 0.039,0.1614 -0.039,0.1215 0,0.08 0,0.1614 0.2038,8.7555 0,0.08 0,0.1216 0,0.2033 -0.039,9.1608 0,0.08 0,0.1215 0,0.04 0,0.1613 -0.2439,8.9987 0,0.08 0,0.04 0,0.1614 0,0.04 -0.4462,9.0798 0,0.2033 -0.039,0.1215 0,0.08 0,0.04 -0.039,0.1614 -0.6084,8.8368 0,0.2033 0,0.04 -0.039,0.04 -0.8509,9.1608 0,0.1216 -0.039,0.1215 0,0.08 -0.039,0.1613 -1.013,8.796 -0.039,0.1614 0,0.04 0,0.1216 0,0.1215 -1.3373,9.1202 -0.039,0.1216 0,0.1215 -0.039,0.2838 -0.039,0.2431 -0.039,0.1614 10.0526,1.8241 0.1167,-0.6892 0,-0.08 0,-0.04 0.039,-0.04 0,-0.04 0,-0.082 1.3373,-9.404 0,-0.08 0,-0.1216 1.1363,-9.4039 0,-0.1614 0.039,-0.1216 0,-0.04 0,-0.04 0,-0.04 0.039,-0.1215 0.8924,-9.1204 0,-0.1216 0,-0.082 0,-0.04 0,-0.08 0,-0.04 0.039,-0.2838 0.6486,-9.0391 -0.039,0 0,-0.1215 0,-0.08 0,-0.08 0,-0.08 0.4851,-9.4041 0,-0.1216 0,-0.04 0,-0.04 0,-0.04 0,-0.04 0.2439,-9.5257 0,-0.08 0,-0.1215 0,-9.3635 0,-0.1614 0,-0.08 0,-0.08 -0.2023,-9.404 0,-0.1614 0,-0.04 0,-0.082 0,-0.04 -0.406,-9.1609 -0.039,-0.2033 0,-0.3649 0,-0.08 0.039,0 -0.6485,-9.2418 0,-0.04 0,-0.04 0,-0.1216 0,-0.04 0,-0.04 0,-0.1216 -0.4449,-5.0263 z m -22.0509,142.277 -1.2167,4.4992 -0.039,0.1216 0,0.08 -0.078,0.2432 -0.039,0.3649 -0.1167,0.1613 -2.4321,8.4718 -1.135,3.932 -0.1622,-0.082 -1.5799,5.0261 0,0.1216 -0.078,0.4458 -0.039,0.08 -0.039,0.1216 -2.1882,6.3234 0.078,0.04 -1.01428,2.6348 -3.3232,8.877 -0.039,0.1216 -0.039,0.1216 -3.4451,8.5528 -0.078,0.2033 -0.039,0.1614 -0.078,0.1614 -3.8511,8.9175 -0.039,0.04 -3.9731,8.715 -0.039,0.1216 -0.078,0.08 0,0.04 -0.078,0.1614 -4.0937,8.4719 -0.039,0.08 -0.039,0.08 -0.078,0.08 -0.039,0.08 -4.4193,8.4717 0,0.04 -0.039,0.04 -0.078,0.1614 0,0.04 -3.2427,5.9182 8.7957,5.3101 3.2427,-5.8371 0.039,-0.082 0,-0.04 0.039,-0.08 0.078,-0.1215 4.5399,-8.7555 0.039,-0.082 0.039,-0.04 0.039,-0.08 0,-0.04 4.3765,-8.9176 0,-0.04 0.039,-0.08 0.039,-0.08 0.039,-0.04 3.9328,-8.5935 0.039,-0.1614 0.1622,-0.2838 0.039,-0.1215 0.039,-0.08 3.64878,-8.4312 0,-0.04 0.2023,-0.4457 0.039,-0.1216 0.039,-0.04 3.6475,-9.2013 0.039,-0.1216 0.078,-0.1614 0.039,-0.08 0.039,-0.04 0.039,-0.08 0,-0.1215 3.161,-8.634 0,-0.04 0.039,-0.082 0.039,-0.1216 0.039,-0.04 3.0806,-8.8771 0,-0.04 0.078,-0.4458 0.1623,-0.2836 2.7978,-8.7962 0.039,-0.1215 0.039,-0.1614 0.039,-0.1614 0.039,-0.1215 2.5942,-8.796 0,-0.1614 0.1168,-0.4055 1.3386,-5.0263 -9.7283,-2.8779 z"
       id="path5131"
       inkscape:export-filename="/home/zerd/Pictures/irene/logo-color.png"
       inkscape:export-xdpi="180.89"
       inkscape:export-ydpi="180.89" />
    <g
       transform="scale(1.0500136,0.95236861)"
       style="font-size:233.54653931px;font-style:normal;font-variant:normal;font-weight:normal;font-stretch:normal;line-height:100%;letter-spacing:-14.70302773px;word-spacing:0px;fill:#003087;fill-opacity:1;stroke:none;font-family:Droid Sans;-inkscape-font-specification:Droid Sans"
       id="text5133">
      <path
         d="m 31.790069,358.48408 21.552879,0 24.517825,69.90431 c 1.064291,3.04103 2.12863,6.23404 3.193019,9.57906 1.140312,3.34511 2.166639,6.69017 3.078983,10.0352 0.988261,3.3451 1.824527,6.57613 2.5088,9.6931 0.684162,3.11701 1.178319,6.00593 1.482474,8.66676 l 0.684218,0 c 0.380063,-1.90058 0.988256,-4.48541 1.824582,-7.75447 0.836206,-3.26902 1.748497,-6.72812 2.736874,-10.37731 1.064276,-3.72515 2.128614,-7.37432 3.193019,-10.9475 1.140297,-3.57309 2.128611,-6.61406 2.964946,-9.12291 l 22.693242,-69.67624 21.43884,0 -49.491792,141.51917 c -2.128741,6.15794 -4.447479,11.6697 -6.956221,16.53528 -2.43283,4.94154 -5.283737,9.12287 -8.552729,12.544 -3.269088,3.42104 -7.10831,6.04388 -11.517676,7.86851 -4.40944,1.90055 -9.655109,2.85086 -15.737023,2.85091 -3.953279,-5e-5 -7.374367,-0.22813 -10.263276,-0.68422 -2.888929,-0.38017 -5.359715,-0.79831 -7.412365,-1.2544 l 0,-16.53527 c 1.596504,0.38008 3.611145,0.68418 6.043929,0.91229 2.432765,0.30406 4.979575,0.4561 7.640438,0.45614 3.649144,-4e-5 6.804148,-0.45618 9.465021,-1.36843 2.66082,-0.83631 4.979558,-2.09071 6.95622,-3.76321 1.976596,-1.67256 3.649128,-3.72521 5.017602,-6.15796 1.444421,-2.4328 2.736832,-5.20769 3.877237,-8.32466 L 79.22921,484.83641 31.790069,358.48408"
         style="line-height:0%;letter-spacing:-20.59247589px;fill:#003087;font-family:Droid Sans;-inkscape-font-specification:Droid Sans"
         id="path2999" />
      <path
         d="m 245.99854,420.86199 c -1.2e-4,10.41538 -1.29253,19.69033 -3.87724,27.82488 -2.50891,8.0586 -6.15807,14.86277 -10.94749,20.41252 -4.71361,5.47375 -10.45343,9.65508 -17.2195,12.544 -6.76624,2.88892 -14.36866,4.33338 -22.80728,4.33338 -7.83055,0 -15.05285,-1.44446 -21.66691,-4.33338 -6.61415,-2.88892 -12.35398,-7.07025 -17.2195,-12.544 -4.78955,-5.54975 -8.55275,-12.35392 -11.2896,-20.41252 -2.66086,-8.13455 -3.99129,-17.4095 -3.99127,-27.82488 -2e-5,-10.33923 1.25438,-19.50014 3.7632,-27.48277 2.5848,-8.05847 6.23396,-14.82463 10.94749,-20.29848 4.71347,-5.54965 10.4533,-9.73098 17.2195,-12.544 6.84213,-2.8888 14.48256,-4.33326 22.92131,-4.33339 7.83043,1.3e-4 15.05272,1.44459 21.66692,4.33339 6.61401,2.81302 12.31583,6.99435 17.10546,12.544 4.86544,5.47385 8.62864,12.24001 11.2896,20.29848 2.73675,7.98263 4.10519,17.14354 4.10531,27.48277 m -87.57995,0 c -4e-5,15.88912 2.58479,27.86293 7.75447,35.92147 5.24563,7.98256 13.72233,11.97383 25.43012,11.97382 11.70766,1e-5 20.10833,-3.99126 25.20204,-11.97382 5.16955,-8.05854 7.75438,-20.03235 7.75448,-35.92147 -1e-4,-15.88899 -2.62294,-27.74877 -7.86851,-35.57935 -5.16974,-7.90642 -13.60843,-11.85968 -25.31608,-11.85979 -11.7078,1.1e-4 -20.14648,3.95337 -25.31608,11.85979 -5.09367,7.83058 -7.64048,19.69036 -7.64044,35.57935"
         style="line-height:0%;letter-spacing:-20.59247589px;fill:#003087;font-family:Droid Sans;-inkscape-font-specification:Droid Sans"
         id="path3001" />
      <path
         d="m 354.83736,358.48408 0,12.88611 -22.46517,3.07899 c 2.12859,2.66095 3.91515,6.08204 5.35971,10.26327 1.44436,4.10541 2.16659,8.7809 2.16669,14.02648 -1e-4,5.77792 -0.91239,11.13763 -2.73687,16.07913 -1.74865,4.86562 -4.44751,9.08496 -8.09658,12.65804 -3.57323,3.57319 -8.02065,6.38609 -13.34226,8.43869 -5.32177,1.97668 -11.51774,2.965 -18.58793,2.96495 -1.6726,5e-5 -3.34513,5e-5 -5.01761,0 -1.67258,-0.076 -3.04102,-0.22803 -4.10531,-0.45614 -1.29246,0.76028 -2.58487,1.63456 -3.87723,2.62283 -1.21644,0.91234 -2.3568,1.97667 -3.4211,3.19302 -0.98835,1.21643 -1.82462,2.58486 -2.5088,4.10531 -0.60823,1.52052 -0.91233,3.19305 -0.91229,5.0176 -4e-5,2.05269 0.45611,3.72522 1.36844,5.0176 0.91225,1.21642 2.12864,2.16672 3.64916,2.85091 1.59647,0.68425 3.45906,1.14039 5.58779,1.36844 2.12863,0.2281 4.37134,0.34213 6.72814,0.34211 l 20.07041,0 c 7.07017,2e-5 13.03807,0.91231 17.90371,2.73687 4.86546,1.74858 8.81872,4.14334 11.85979,7.1843 3.11689,3.04098 5.3596,6.65212 6.72815,10.83345 1.36832,4.10531 2.05254,8.4767 2.05265,13.11419 -1.1e-4,6.69012 -1.25451,12.69603 -3.7632,18.01775 -2.43288,5.32166 -6.19608,9.80709 -11.2896,13.4563 -5.09372,3.72514 -11.55578,6.57604 -19.38619,8.55273 -7.75455,1.97657 -16.91546,2.96489 -27.48277,2.96494 -8.13464,-5e-5 -15.2429,-0.79831 -21.32481,-2.39476 -6.08196,-1.59656 -11.13757,-3.9153 -15.16684,-6.95622 -4.0293,-3.04102 -7.07026,-6.72819 -9.12291,-11.06153 -1.97664,-4.25739 -2.96495,-9.08493 -2.96495,-14.48263 0,-4.56147 0.72223,-8.59075 2.1667,-12.08785 1.52047,-3.4211 3.53511,-6.38604 6.04393,-8.89484 2.50878,-2.5088 5.3977,-4.56145 8.66676,-6.15797 3.34504,-1.5965 6.80414,-2.81289 10.37731,-3.64916 -3.19304,-1.44445 -5.81588,-3.72518 -7.86851,-6.84219 -2.05267,-3.11697 -3.079,-6.69011 -3.07898,-10.71942 -2e-5,-4.63745 1.21637,-8.62872 3.64916,-11.97382 2.43275,-3.42105 6.27198,-6.7281 11.51768,-9.92117 -3.26908,-1.36838 -6.27203,-3.23097 -9.00888,-5.58778 -2.66087,-2.43272 -4.94159,-5.16959 -6.84218,-8.21062 -1.8246,-3.11693 -3.26906,-6.5 -4.33338,-10.14924 -0.98833,-3.64909 -1.48249,-7.41228 -1.48248,-11.2896 -1e-5,-6.76607 0.95029,-12.80999 2.85091,-18.13179 1.90059,-5.32159 4.71349,-9.84503 8.4387,-13.57033 3.72516,-3.72507 8.36263,-6.57598 13.91244,-8.55273 5.54972,-1.9765 12.01178,-2.96482 19.38619,-2.96495 2.81283,1.3e-4 5.70175,0.2282 8.66676,0.68422 3.0409,0.38025 5.58771,0.91242 7.64044,1.59651 l 41.39521,0 M 262.35384,504.2226 c -2e-5,2.81287 0.49414,5.43571 1.48248,7.86851 0.98829,2.43274 2.58479,4.52341 4.78953,6.272 2.28069,1.74852 5.24564,3.11696 8.89484,4.10531 3.72514,1.0643 8.3246,1.59647 13.7984,1.59651 14.14045,-4e-5 24.70781,-2.20474 31.70212,-6.61411 7.07016,-4.33341 10.60529,-10.60541 10.60538,-18.81601 -9e-5,-3.49712 -0.45624,-6.34803 -1.36843,-8.55273 -0.91239,-2.2047 -2.43287,-3.95326 -4.56146,-5.24567 -2.05274,-1.21639 -4.78961,-2.05266 -8.21062,-2.5088 -3.42117,-0.45615 -7.6025,-0.68422 -12.544,-0.68422 l -20.07041,0 c -2.6609,0 -5.43578,0.3041 -8.32466,0.91229 -2.88896,0.6082 -5.5498,1.74856 -7.98254,3.42109 -2.35679,1.67253 -4.33342,3.95326 -5.9299,6.84219 -1.52051,2.96493 -2.28075,6.76614 -2.28073,11.40364 m 10.49135,-105.48367 c -3e-5,8.74287 2.05262,15.24293 6.15797,19.50022 4.10526,4.25742 9.92111,6.3861 17.44757,6.38604 7.60236,6e-5 13.34218,-2.0906 17.21949,-6.272 3.95319,-4.25729 5.92981,-10.90941 5.9299,-19.95637 -9e-5,-9.35089 -2.01473,-16.23108 -6.04393,-20.64059 -3.95334,-4.40929 -9.73117,-6.614 -17.33354,-6.61411 -7.52645,1.1e-4 -13.30429,2.28084 -17.33353,6.84219 -4.02932,4.56155 -6.04396,11.47975 -6.04393,20.75462"
         style="line-height:0%;letter-spacing:-20.59247589px;fill:#003087;font-family:Droid Sans;-inkscape-font-specification:Droid Sans"
         id="path3003" />
      <path
         d="m 429.23722,483.69604 -4.21935,-17.33353 -0.91229,0 c -2.50888,3.42111 -5.01768,6.38605 -7.5264,8.89484 -2.50888,2.43278 -5.24575,4.44743 -8.21062,6.04393 -2.96502,1.59651 -6.27207,2.77489 -9.92117,3.53513 -3.64922,0.76024 -7.86856,1.14036 -12.65804,1.14036 -5.24572,0 -10.07325,-0.76024 -14.48262,-2.28073 -4.40944,-1.44445 -8.24866,-3.68717 -11.51768,-6.72814 -3.19303,-3.11699 -5.70183,-6.99422 -7.5264,-11.63171 -1.82459,-4.71349 -2.73688,-10.26325 -2.73687,-16.64932 -10e-6,-12.46793 4.37138,-22.04698 13.11418,-28.73717 8.81878,-6.69007 22.19904,-10.33923 40.14081,-10.94749 l 20.9827,-0.79826 0,-7.86851 c -8e-5,-5.09354 -0.57027,-9.35089 -1.71055,-12.77208 -1.06442,-3.42099 -2.66093,-6.15786 -4.78952,-8.21062 -2.05274,-2.12857 -4.63756,-3.64905 -7.75448,-4.56145 -3.04104,-0.91218 -6.53815,-1.36833 -10.49135,-1.36844 -6.31007,1.1e-4 -12.20194,0.9124 -17.67564,2.73687 -5.39776,1.82469 -10.60542,4.02939 -15.62299,6.61411 l -7.29832,-15.62298 c 5.62577,-3.04085 11.89776,-5.62568 18.816,-7.75448 6.91816,-2.12855 14.17847,-3.19289 21.78095,-3.19302 7.75441,1.3e-4 14.44454,0.79839 20.07041,2.39477 5.70173,1.52061 10.37722,3.99139 14.02648,7.41236 3.72509,3.34519 6.49997,7.64055 8.32465,12.88612 1.82448,5.24577 2.73677,11.59379 2.73688,19.04408 l 0,85.75536 -14.93877,0 m -38.08816,-14.48262 c 4.63742,2e-5 8.93279,-0.72221 12.88611,-2.16669 3.9532,-1.44444 7.37429,-3.61113 10.26328,-6.50007 2.88884,-2.96492 5.13156,-6.6521 6.72815,-11.06153 1.67245,-4.4854 2.50871,-9.73107 2.5088,-15.73703 l 0,-11.2896 -16.30721,0.79825 c -6.84224,0.30416 -12.58207,1.0644 -17.21949,2.28073 -4.63753,1.21645 -8.36271,2.92699 -11.17557,5.13164 -2.73691,2.12873 -4.71354,4.75157 -5.92989,7.86851 -1.21642,3.04101 -1.82462,6.50012 -1.82458,10.37731 -4e-5,6.99426 1.82454,12.1259 5.47374,15.39492 3.72515,3.26906 8.5907,4.90358 14.59666,4.90356"
         style="line-height:0%;letter-spacing:-20.59247589px;fill:#003087;font-family:Droid Sans;-inkscape-font-specification:Droid Sans"
         id="path3005" />
    </g>
    <path
       id="path5137"
       d="m 523.82861,42.874058 0,0.052 c -2.7317,0.1173 -5.8357,1.3904 -7.2729,4.2336 -1.4566,2.8823 -0.6771,6.1342 0.8133,8.5208 0.7757,1.2389 1.2504,1.6319 1.9548,2.2791 0.703,0.6486 1.5254,1.3256 2.4411,2.0623 1.8341,1.4749 4.0989,3.1742 6.352,4.7761 2.253,1.6019 4.501,3.1077 6.4025,4.2881 13.2513,14.0206 20.1973,14.2488 34.52,15.245 0.5033,0.1551 1.9457,0.9171 4.8305,2.877 13.4588,9.1355 20.1259,14.687202 30.1228,25.074402 5.9394,6.1692 12.4717,12.3849 16.2813,15.0337 8.2289,5.7098 12.4925,10.2459 14.9803,15.1969 1.864,3.7032 6.5206,11.4081 10.8011,18.018 6.8526,10.5741 7.64,12.4367 12.8621,29.634 1.6033,5.2753 3.2026,10.313 4.4517,14.1656 0.2179,0.6765 0.3438,1.0812 0.5422,1.6823 -2.5255,-1.5805 -5.4829,-3.4881 -6.0238,-3.962 -1.9521,-1.7132 -5.2598,-4.1938 -8.0888,-6.0787 l -2.6046,-1.737 -0.052,-5.916 c 0,-2.4918 -0.1037,-4.8564 -0.2698,-6.8384 -0.091,-0.991 -0.1867,-1.9041 -0.3281,-2.7136 -0.1375,-0.8094 0.1387,-1.1556 -1.0312,-2.9847 -1.5254,-2.4048 -2.5372,-2.4735 -3.9082,-3.257 -1.3672,-0.7834 -3.0015,-1.5566 -4.776,-2.3335 -3.5424,-1.5527 -7.6426,-3.0768 -11.3419,-4.0159 -1.5981,-0.406 -1.7965,-0.5668 -1.8445,-0.5435 -2.9937,-2.5708 0.1855,-4.8836 -3.3051,-6.7669 -1.8847,0.1048 -7.4545,2.2425 -9.9112,2.1818 -0.157,0.1383 -1.074,-0.2997 -1.109,-0.244 -0.039,-0.021 -0.8872,-0.2802 -3.2026,-0.8147 -8.4597,-1.9521 -14.1035,-1.6926 -22.7954,1.1947 -5.6022,1.8628 -8.9449,3.0185 -11.8297,4.7761 -2.8886,1.7576 -4.7746,4.1261 -6.6762,6.8929 -4.4128,6.4115 -7.5673,14.3965 -9.3353,22.2518 -1.768,7.856 -2.2998,15.455 -0.2166,21.7638 0.078,0.2236 0.5513,2.4027 0.869,4.8306 0.3152,2.4274 0.5669,5.357 0.7044,8.0324 0.1557,2.9669 0.4695,5.9322 0.8146,8.4667 0.345,2.5343 0.3735,4.1243 1.4099,6.4041 1.9755,4.3322 6.0238,6.6827 10.0954,7.6527 4.0289,0.9597 8.5688,0.7082 12.3213,-2.0623 0.091,0.1383 2.4165,-0.76 3.4179,-0.76 3.951,0 7.9409,-1.8435 10.801,-4.8304 1.3348,-1.3935 1.541,-1.4518 1.4113,-1.4109 -0.1375,0.04 0.6459,-0.061 2.9833,0.2171 4.0159,0.4752 7.4701,0.541 10.9113,-0.7599 3.4361,-1.3009 6.1522,-3.5385 9.7141,-6.8384 1.9158,-1.7763 2.7058,-2.3921 3.3647,-2.8766 0.9573,0.9819 2.0118,2.5647 2.4425,4.776 0.5551,2.8519 0,5.8779 -1.0312,7.327 -0.6849,0.9769 -1.266,1.9649 -1.7369,2.9309 -0.297,0.6092 -0.6005,1.1538 -0.8159,1.9537 -0.1815,0.2365 -0.3709,0.5456 -0.7588,0.9767 -0.9624,1.0763 -2.3892,2.5551 -3.96,4.0166 l -0.052,0 c -6.3312,5.8891 -10.6791,11.0919 -12.8077,18.9955 -2.1312,7.9039 -2.353,17.9136 -2.3893,35.2238 -0.052,25.5959 -0.091,26.3778 -2.8757,36.4175 -1.5578,5.6161 -4.7617,15.2586 -6.9473,20.8954 -4.4465,11.4743 -9.0097,26.2152 -19.3218,61.7633 -3.9069,13.4702 -6.6775,21.2744 -9.7127,26.4315 -3.0405,5.1566 -6.3312,8.0724 -12.8103,12.4285 -5.4673,3.6759 -9.1239,6.2832 -11.6675,8.521 -2.1286,1.8712 -3.9186,3.7407 -4.4504,6.4043 -0.1932,0.1572 -0.4319,0.3452 -0.7069,0.4884 -1.9677,1.028 -3.4452,2.3473 -5.8072,4.3961 -2.3607,2.0495 -5.2546,4.7352 -8.5739,7.9242 -6.6399,6.3776 -15.0102,14.8292 -23.9356,24.2602 -15.5018,16.3817 -23.4258,24.7547 -28.0604,29.1993 -4.6333,4.4445 -5.3013,4.6501 -8.3028,6.0245 -4.7033,2.1531 -8.5467,5.1385 -11.2901,9.0634 -1.2504,1.788 -6.7397,8.0687 -11.2874,12.7002 -4.5464,4.6279 -7.6296,8.2944 -9.4987,11.8861 -0.934,1.7953 -1.6292,3.6642 -1.6279,5.807 0,2.1428 1.0001,4.4728 2.4956,5.9701 1.2842,1.2858 1.9898,1.3946 2.8225,1.7369 0.8354,0.342 1.6876,0.6465 2.6591,0.9224 1.9522,0.552 4.2961,1.0127 6.6763,1.357 8.1121,1.1723 11.2459,1.2362 16.8792,0.3798 3.6112,-0.5485 6.2768,-2.6184 8.3028,-5.1016 2.0274,-2.4834 3.5269,-5.5387 3.5295,-9.1178 0,-0.7082 0.052,-1.2117 0.8133,-2.2254 0.7588,-1.014 2.2985,-2.3835 4.7228,-4.0164 3.187,-2.1478 5.8811,-5.2323 7.7606,-8.6295 l 0,-0.052 c 0.7264,-1.316 1.2257,-1.9127 2.7693,-3.0937 1.5384,-1.1812 4.1741,-2.7638 8.4649,-5.0475 6.0679,-3.2289 14.3759,-7.961 18.8328,-10.746 4.1858,-2.6133 11.2148,-6.8593 15.468,-9.3352 4.3661,-2.5391 14.4628,-8.5063 22.5244,-13.297 7.9902,-4.7495 18.7199,-10.8751 23.4984,-13.4597 21.1391,-11.4223 50.6665,-29.6902 83.639,-51.6685 15.5213,-10.349 29.3848,-18.4439 46.8919,-27.4629 l 10.6908,-5.5356 11.5067,3.3649 c 36.5967,10.7129 56.6072,13.4172 96.38961,13.0255 20.9626,-0.2054 26.1017,0.029 33.1619,1.6285 2.1273,0.4822 4.0301,0.9553 5.6438,1.3568 -0.1558,1.0733 -0.2296,2.0812 -0.4904,3.4192 -1.5176,7.8562 -2.1142,14.79 -1.301,24.9658 0.8172,10.1755 2.9445,23.7337 6.7852,45.807 3.0807,17.6946 2.9678,37.1269 0.5954,44.8842 -1.4943,4.9018 -2.2518,9.4442 -2.1156,13.4599 0.1388,4.0157 0.9728,8.0318 4.6125,10.5833 3.5891,2.5109 7.4364,2.6232 12.3745,2.6052 4.9381,-0.021 10.8412,-0.6487 17.3683,-1.8995 10.0902,-1.9335 9.5,-1.9479 22.7409,1.6823 2.196,0.6018 4.4764,0.7175 7.3274,0.8143 2.8459,0.096 6.0951,0.078 9.3327,-0.055 3.2428,-0.1341 6.4259,-0.3762 9.2277,-0.7057 2.8017,-0.329 5.0107,-0.59 7.1639,-1.4109 2.5761,-0.9822 4.8668,-2.5054 6.1859,-5.1561 1.3244,-2.6506 0.8094,-6.4507 -1.083,-8.7381 l 0,-0.055 c -1.6863,-2.0242 -3.7876,-2.5306 -5.6995,-2.8223 -1.912,-0.292 -4.0068,-0.329 -6.6205,-0.2171 -3.1066,0.132 -4.1897,0.1278 -6.0783,-0.4339 -1.8899,-0.5629 -4.8343,-1.9338 -10.2043,-4.6134 -7.8657,-3.9258 -12.7688,-6.6913 -15.8481,-9.1181 -3.082,-2.427 -4.4725,-4.3676 -6.0796,-7.6527 -1.5046,-3.0669 -1.8665,-3.4978 -2.1688,-6.6212 -0.3022,-3.1237 -0.284,-8.8759 -0.1569,-20.2984 0.1297,-12.5155 0.7704,-27.5278 1.3023,-32.347 1.0818,-9.7632 2.5799,-33.0553 4.0703,-63.283 0.1895,-3.8518 0.2854,-7.6361 0.2711,-10.7464 0,-1.5551 -0.052,-2.9673 -0.1037,-4.1249 -0.052,-1.1573 -0.078,-1.837 -0.3801,-3.0935 -1.2751,-5.0812 -5.2144,-7.9836 -10.8023,-11.5059 -5.5854,-3.5223 -13.3149,-7.3408 -23.4453,-11.669 -27.0513,-11.5564 -49.3966,-17.8407 -84.56,-23.8804 -6.79941,-1.1686 -7.70221,-4.1906 -7.89161,-5.3654 -0.1297,-0.5395 0.2062,-8.3575 -0.039,-10.5919 0.205,-32.9276 -27.8425,-65.5604 -33.4758,-93.8924 -6.6802,-14.1752 -9.3626,-21.7291 -18.5604,-29.8506 -1.6318,-1.3229 -3.6151,-2.8504 -5.6463,-4.3416 -1.8251,-1.3414 -3.5165,-2.7198 -4.6125,-3.7451 -0.4411,-0.4127 -0.6733,-0.7072 -0.8678,-0.9226 -0.052,-0.1048 -0.078,-0.3645 -0.1038,-0.4884 -0.201,-0.6164 -0.4566,-1.3049 -0.7588,-2.0625 -0.6057,-1.5151 -1.4294,-3.4002 -2.4411,-5.6444 -2.0261,-4.4883 -4.7955,-10.3201 -7.8151,-16.4992 -6.0407,-12.3587 -13.0658,-26.0848 -17.4215,-33.5951 -4.8564,-8.3741 -19.1635,-26.1458 -29.7454,-37.4489 -2.4775,-2.646 -6.0315,-7.7541 -6.9992,-9.7699 -2.2323,-4.6293 -5.9939,-8.7333 -11.4509,-13.0799 -9.2821,-7.387102 -31.4432,-22.840802 -39.7837,-27.679102 -2.8199,-1.6344 -8.5817,-5.1768 -12.5379,-7.7074 -10.5403,-6.7437 -18.9015,-10.8465 -30.8271,-15.0335 -2.7187,-0.9546 -5.5361,-1.9781 -7.8151,-2.877 -2.2777,-0.8976 -4.248,-1.8186 -4.3972,-1.899 -1.4372,-0.7835 -2.8199,-1.2232 -4.7215,-1.8459 -1.9002,-0.6212 -4.1313,-1.3021 -6.5128,-1.9533 -4.7552,-1.3024 -9.9241,-2.5398 -13.6754,-3.148 -0.6745,-0.1048 -1.4424,-0.2033 -2.3893,-0.1635 -0.039,0 -0.013,0 -0.052,0 z m 121.3006,272.344802 c 1.2777,0.7325 2.641,1.3581 3.9095,1.8454 1.0325,0.3974 1.816,0.774 3.0379,0.9226 0.039,0 0.4475,0.04 0.8133,0.3259 0.7367,0.5713 1.8561,1.6 3.0391,2.8762 2.3698,2.553 5.1197,6.1237 7.221,9.5523 l 1.7355,2.8764 -2.3348,4.8849 c -2.0753,4.3491 -6.3454,14.4791 -9.7685,23.012 -5.7475,14.3165 -6.0329,14.7801 -15.1425,25.3456 -5.287,6.1348 -13.0826,14.5923 -16.9338,18.3986 -2.1013,2.0775 -4.5502,4.8897 -7.1094,7.6529 10.7024,-24.6613 13.9309,-34.5635 23.7176,-72.9982 1.6266,-6.3824 3.261,-12.3711 4.5594,-16.7705 0.6473,-2.1997 1.2063,-4.0346 1.6266,-5.2645 0.1932,-0.5617 0.3346,-0.9431 0.4358,-1.1942 0,-0.023 0.052,-0.09 0.052,-0.1069 0.4008,-0.4403 0.8509,-0.8721 1.1389,-1.3568 z"
       style="fill:#003087;fill-opacity:1;stroke:none"
       inkscape:connector-curvature="0"
       sodipodi:nodetypes="ccccscsccccccccccccccccccccccccccccscccccccsccccccccccccccccccccccccccsccccccccccccccccccccccccccccccccccccccccscccccccccccccccccsccccccccccccscccccccccccccscccccccccccccccccccc"
       inkscape:export-filename="/home/zerd/Pictures/irene/logo-color.png"
       inkscape:export-xdpi="180.89"
       inkscape:export-ydpi="180.89" />
    <rect
       transform="matrix(0.58429923,0.8115383,-0.58429923,0.8115383,0,0)"
       y="-280.18732"
       x="358.12436"
       height="36.963711"
       width="36.963711"
       id="rect5139"
       style="fill:#003087;fill-opacity:1;stroke:none"
       inkscape:export-filename="/home/zerd/Pictures/irene/logo-color.png"
       inkscape:export-xdpi="180.89"
       inkscape:export-ydpi="180.89" />
  </g>
</svg>
